<mxfile host="app.diagrams.net" modified="2022-06-30T02:57:49.241Z" agent="5.0 (Windows NT 10.0; Win64; x64) AppleWebKit/537.36 (KHTML, like Gecko) Chrome/102.0.5005.124 Safari/537.36 Edg/102.0.1245.44" etag="41raPFYpj-TydNDRErId" version="20.0.4" type="github">
  <diagram id="C5RBs43oDa-KdzZeNtuy" name="Page-1">
    <mxGraphModel dx="1721" dy="2081" grid="1" gridSize="10" guides="1" tooltips="1" connect="1" arrows="1" fold="1" page="1" pageScale="1" pageWidth="827" pageHeight="1169" math="0" shadow="0">
      <root>
        <mxCell id="WIyWlLk6GJQsqaUBKTNV-0" />
        <mxCell id="WIyWlLk6GJQsqaUBKTNV-1" parent="WIyWlLk6GJQsqaUBKTNV-0" />
        <mxCell id="JY7lylcE65taJHY3PQle-6" value="" style="edgeStyle=orthogonalEdgeStyle;rounded=0;orthogonalLoop=1;jettySize=auto;html=1;sketch=1;" edge="1" parent="WIyWlLk6GJQsqaUBKTNV-1" source="JY7lylcE65taJHY3PQle-4" target="JY7lylcE65taJHY3PQle-5">
          <mxGeometry relative="1" as="geometry" />
        </mxCell>
        <mxCell id="JY7lylcE65taJHY3PQle-4" value="Alarm input" style="rounded=1;whiteSpace=wrap;html=1;fontSize=12;glass=0;strokeWidth=1;shadow=0;sketch=1;" vertex="1" parent="WIyWlLk6GJQsqaUBKTNV-1">
          <mxGeometry x="310" y="80" width="120" height="40" as="geometry" />
        </mxCell>
        <mxCell id="JY7lylcE65taJHY3PQle-10" value="" style="edgeStyle=orthogonalEdgeStyle;rounded=0;orthogonalLoop=1;jettySize=auto;html=1;sketch=1;" edge="1" parent="WIyWlLk6GJQsqaUBKTNV-1" source="JY7lylcE65taJHY3PQle-5" target="JY7lylcE65taJHY3PQle-9">
          <mxGeometry relative="1" as="geometry" />
        </mxCell>
        <mxCell id="JY7lylcE65taJHY3PQle-5" value="合并告警处理" style="rounded=1;whiteSpace=wrap;html=1;fontSize=12;glass=0;strokeWidth=1;shadow=0;sketch=1;" vertex="1" parent="WIyWlLk6GJQsqaUBKTNV-1">
          <mxGeometry x="310" y="170" width="120" height="40" as="geometry" />
        </mxCell>
        <mxCell id="JY7lylcE65taJHY3PQle-7" value="Alarms" style="text;html=1;align=center;verticalAlign=middle;resizable=0;points=[];autosize=1;strokeColor=none;fillColor=none;sketch=1;" vertex="1" parent="WIyWlLk6GJQsqaUBKTNV-1">
          <mxGeometry x="370" y="130" width="60" height="30" as="geometry" />
        </mxCell>
        <mxCell id="JY7lylcE65taJHY3PQle-21" value="" style="edgeStyle=orthogonalEdgeStyle;rounded=0;orthogonalLoop=1;jettySize=auto;html=1;sketch=1;" edge="1" parent="WIyWlLk6GJQsqaUBKTNV-1" source="JY7lylcE65taJHY3PQle-8" target="JY7lylcE65taJHY3PQle-20">
          <mxGeometry relative="1" as="geometry" />
        </mxCell>
        <mxCell id="JY7lylcE65taJHY3PQle-8" value="XDR安全事件处理" style="rounded=1;whiteSpace=wrap;html=1;fontSize=12;glass=0;strokeWidth=1;shadow=0;sketch=1;" vertex="1" parent="WIyWlLk6GJQsqaUBKTNV-1">
          <mxGeometry x="310" y="360" width="120" height="40" as="geometry" />
        </mxCell>
        <mxCell id="JY7lylcE65taJHY3PQle-11" value="" style="edgeStyle=orthogonalEdgeStyle;rounded=0;orthogonalLoop=1;jettySize=auto;html=1;sketch=1;" edge="1" parent="WIyWlLk6GJQsqaUBKTNV-1" source="JY7lylcE65taJHY3PQle-9" target="JY7lylcE65taJHY3PQle-8">
          <mxGeometry relative="1" as="geometry" />
        </mxCell>
        <mxCell id="JY7lylcE65taJHY3PQle-19" value="Create" style="edgeLabel;html=1;align=center;verticalAlign=middle;resizable=0;points=[];sketch=1;" vertex="1" connectable="0" parent="JY7lylcE65taJHY3PQle-11">
          <mxGeometry x="-0.2419" relative="1" as="geometry">
            <mxPoint as="offset" />
          </mxGeometry>
        </mxCell>
        <mxCell id="JY7lylcE65taJHY3PQle-14" style="edgeStyle=orthogonalEdgeStyle;rounded=0;orthogonalLoop=1;jettySize=auto;html=1;sketch=1;" edge="1" parent="WIyWlLk6GJQsqaUBKTNV-1" source="JY7lylcE65taJHY3PQle-9" target="JY7lylcE65taJHY3PQle-13">
          <mxGeometry relative="1" as="geometry" />
        </mxCell>
        <mxCell id="JY7lylcE65taJHY3PQle-17" value="Update" style="edgeLabel;html=1;align=center;verticalAlign=middle;resizable=0;points=[];sketch=1;" vertex="1" connectable="0" parent="JY7lylcE65taJHY3PQle-14">
          <mxGeometry x="0.1156" y="-2" relative="1" as="geometry">
            <mxPoint x="-42" y="-2" as="offset" />
          </mxGeometry>
        </mxCell>
        <mxCell id="JY7lylcE65taJHY3PQle-9" value="On Creation?" style="rhombus;whiteSpace=wrap;html=1;sketch=1;" vertex="1" parent="WIyWlLk6GJQsqaUBKTNV-1">
          <mxGeometry x="330" y="250" width="80" height="60" as="geometry" />
        </mxCell>
        <mxCell id="JY7lylcE65taJHY3PQle-12" value="MergedAlarms" style="text;html=1;align=center;verticalAlign=middle;resizable=0;points=[];autosize=1;strokeColor=none;fillColor=none;sketch=1;" vertex="1" parent="WIyWlLk6GJQsqaUBKTNV-1">
          <mxGeometry x="370" y="220" width="100" height="30" as="geometry" />
        </mxCell>
        <mxCell id="JY7lylcE65taJHY3PQle-40" style="edgeStyle=orthogonalEdgeStyle;rounded=0;orthogonalLoop=1;jettySize=auto;html=1;sketch=1;" edge="1" parent="WIyWlLk6GJQsqaUBKTNV-1" source="JY7lylcE65taJHY3PQle-13" target="JY7lylcE65taJHY3PQle-35">
          <mxGeometry relative="1" as="geometry">
            <Array as="points">
              <mxPoint x="560" y="830" />
              <mxPoint x="370" y="830" />
            </Array>
          </mxGeometry>
        </mxCell>
        <mxCell id="JY7lylcE65taJHY3PQle-13" value="更新XDR安全事件" style="rounded=1;whiteSpace=wrap;html=1;fontSize=12;glass=0;strokeWidth=1;shadow=0;sketch=1;" vertex="1" parent="WIyWlLk6GJQsqaUBKTNV-1">
          <mxGeometry x="500" y="360" width="120" height="40" as="geometry" />
        </mxCell>
        <mxCell id="JY7lylcE65taJHY3PQle-23" value="" style="edgeStyle=orthogonalEdgeStyle;rounded=0;orthogonalLoop=1;jettySize=auto;html=1;sketch=1;" edge="1" parent="WIyWlLk6GJQsqaUBKTNV-1" source="JY7lylcE65taJHY3PQle-20" target="JY7lylcE65taJHY3PQle-22">
          <mxGeometry relative="1" as="geometry" />
        </mxCell>
        <mxCell id="JY7lylcE65taJHY3PQle-20" value="引擎尝试匹配&lt;br&gt;现有XDR安全事件" style="rounded=1;whiteSpace=wrap;html=1;fontSize=12;glass=0;strokeWidth=1;shadow=0;sketch=1;" vertex="1" parent="WIyWlLk6GJQsqaUBKTNV-1">
          <mxGeometry x="310" y="434" width="120" height="50" as="geometry" />
        </mxCell>
        <mxCell id="JY7lylcE65taJHY3PQle-26" value="" style="edgeStyle=orthogonalEdgeStyle;rounded=0;orthogonalLoop=1;jettySize=auto;html=1;sketch=1;" edge="1" parent="WIyWlLk6GJQsqaUBKTNV-1" source="JY7lylcE65taJHY3PQle-22" target="JY7lylcE65taJHY3PQle-25">
          <mxGeometry relative="1" as="geometry">
            <Array as="points">
              <mxPoint x="370" y="590" />
              <mxPoint x="370" y="590" />
            </Array>
          </mxGeometry>
        </mxCell>
        <mxCell id="JY7lylcE65taJHY3PQle-29" value="No" style="edgeLabel;html=1;align=center;verticalAlign=middle;resizable=0;points=[];sketch=1;" vertex="1" connectable="0" parent="JY7lylcE65taJHY3PQle-26">
          <mxGeometry x="-0.3785" relative="1" as="geometry">
            <mxPoint as="offset" />
          </mxGeometry>
        </mxCell>
        <mxCell id="JY7lylcE65taJHY3PQle-28" style="edgeStyle=orthogonalEdgeStyle;rounded=0;orthogonalLoop=1;jettySize=auto;html=1;sketch=1;" edge="1" parent="WIyWlLk6GJQsqaUBKTNV-1" source="JY7lylcE65taJHY3PQle-22" target="JY7lylcE65taJHY3PQle-27">
          <mxGeometry relative="1" as="geometry" />
        </mxCell>
        <mxCell id="JY7lylcE65taJHY3PQle-30" value="Yes" style="edgeLabel;html=1;align=center;verticalAlign=middle;resizable=0;points=[];sketch=1;" vertex="1" connectable="0" parent="JY7lylcE65taJHY3PQle-28">
          <mxGeometry x="-0.5509" y="-2" relative="1" as="geometry">
            <mxPoint x="-3" y="2" as="offset" />
          </mxGeometry>
        </mxCell>
        <mxCell id="JY7lylcE65taJHY3PQle-22" value="Any Match?" style="rhombus;whiteSpace=wrap;html=1;sketch=1;" vertex="1" parent="WIyWlLk6GJQsqaUBKTNV-1">
          <mxGeometry x="330" y="520" width="80" height="60" as="geometry" />
        </mxCell>
        <mxCell id="JY7lylcE65taJHY3PQle-36" value="" style="edgeStyle=orthogonalEdgeStyle;rounded=0;orthogonalLoop=1;jettySize=auto;html=1;sketch=1;" edge="1" parent="WIyWlLk6GJQsqaUBKTNV-1" source="JY7lylcE65taJHY3PQle-25" target="JY7lylcE65taJHY3PQle-39">
          <mxGeometry relative="1" as="geometry" />
        </mxCell>
        <mxCell id="JY7lylcE65taJHY3PQle-25" value="创建XDR安全事件" style="rounded=1;whiteSpace=wrap;html=1;fontSize=12;glass=0;strokeWidth=1;shadow=0;sketch=1;" vertex="1" parent="WIyWlLk6GJQsqaUBKTNV-1">
          <mxGeometry x="310" y="620" width="120" height="40" as="geometry" />
        </mxCell>
        <mxCell id="JY7lylcE65taJHY3PQle-37" style="edgeStyle=orthogonalEdgeStyle;rounded=0;orthogonalLoop=1;jettySize=auto;html=1;entryX=0.5;entryY=0;entryDx=0;entryDy=0;sketch=1;" edge="1" parent="WIyWlLk6GJQsqaUBKTNV-1" source="JY7lylcE65taJHY3PQle-27" target="JY7lylcE65taJHY3PQle-35">
          <mxGeometry relative="1" as="geometry">
            <Array as="points">
              <mxPoint x="190" y="830" />
              <mxPoint x="370" y="830" />
            </Array>
          </mxGeometry>
        </mxCell>
        <mxCell id="JY7lylcE65taJHY3PQle-27" value="更新XDR安全事件" style="rounded=1;whiteSpace=wrap;html=1;fontSize=12;glass=0;strokeWidth=1;shadow=0;sketch=1;" vertex="1" parent="WIyWlLk6GJQsqaUBKTNV-1">
          <mxGeometry x="130" y="620" width="120" height="40" as="geometry" />
        </mxCell>
        <mxCell id="JY7lylcE65taJHY3PQle-38" value="" style="edgeStyle=orthogonalEdgeStyle;rounded=0;orthogonalLoop=1;jettySize=auto;html=1;sketch=1;" edge="1" parent="WIyWlLk6GJQsqaUBKTNV-1" source="JY7lylcE65taJHY3PQle-31" target="JY7lylcE65taJHY3PQle-35">
          <mxGeometry relative="1" as="geometry" />
        </mxCell>
        <mxCell id="JY7lylcE65taJHY3PQle-57" style="edgeStyle=orthogonalEdgeStyle;rounded=0;orthogonalLoop=1;jettySize=auto;html=1;dashed=1;entryX=0;entryY=0.5;entryDx=0;entryDy=0;sketch=1;" edge="1" parent="WIyWlLk6GJQsqaUBKTNV-1" source="JY7lylcE65taJHY3PQle-31" target="JY7lylcE65taJHY3PQle-44">
          <mxGeometry relative="1" as="geometry">
            <mxPoint x="820" y="269" as="targetPoint" />
            <Array as="points">
              <mxPoint x="770" y="780" />
              <mxPoint x="770" y="190" />
            </Array>
          </mxGeometry>
        </mxCell>
        <mxCell id="JY7lylcE65taJHY3PQle-66" value="Emit once" style="edgeLabel;html=1;align=center;verticalAlign=middle;resizable=0;points=[];" vertex="1" connectable="0" parent="JY7lylcE65taJHY3PQle-57">
          <mxGeometry x="-0.8831" y="1" relative="1" as="geometry">
            <mxPoint as="offset" />
          </mxGeometry>
        </mxCell>
        <mxCell id="JY7lylcE65taJHY3PQle-31" value="创建异步搜索任务" style="rounded=1;whiteSpace=wrap;html=1;fontSize=12;glass=0;strokeWidth=1;shadow=0;sketch=1;" vertex="1" parent="WIyWlLk6GJQsqaUBKTNV-1">
          <mxGeometry x="310" y="760" width="120" height="40" as="geometry" />
        </mxCell>
        <mxCell id="JY7lylcE65taJHY3PQle-34" value="" style="edgeStyle=orthogonalEdgeStyle;rounded=0;orthogonalLoop=1;jettySize=auto;html=1;sketch=1;" edge="1" parent="WIyWlLk6GJQsqaUBKTNV-1" source="JY7lylcE65taJHY3PQle-32" target="JY7lylcE65taJHY3PQle-4">
          <mxGeometry relative="1" as="geometry" />
        </mxCell>
        <mxCell id="JY7lylcE65taJHY3PQle-32" value="Start" style="ellipse;whiteSpace=wrap;html=1;sketch=1;" vertex="1" parent="WIyWlLk6GJQsqaUBKTNV-1">
          <mxGeometry x="310" y="-20" width="120" height="60" as="geometry" />
        </mxCell>
        <mxCell id="JY7lylcE65taJHY3PQle-35" value="End" style="ellipse;whiteSpace=wrap;html=1;sketch=1;" vertex="1" parent="WIyWlLk6GJQsqaUBKTNV-1">
          <mxGeometry x="310" y="860" width="120" height="60" as="geometry" />
        </mxCell>
        <mxCell id="JY7lylcE65taJHY3PQle-41" value="" style="edgeStyle=orthogonalEdgeStyle;rounded=0;orthogonalLoop=1;jettySize=auto;html=1;sketch=1;" edge="1" parent="WIyWlLk6GJQsqaUBKTNV-1" source="JY7lylcE65taJHY3PQle-39" target="JY7lylcE65taJHY3PQle-31">
          <mxGeometry relative="1" as="geometry" />
        </mxCell>
        <mxCell id="JY7lylcE65taJHY3PQle-42" style="edgeStyle=orthogonalEdgeStyle;rounded=0;orthogonalLoop=1;jettySize=auto;html=1;sketch=1;" edge="1" parent="WIyWlLk6GJQsqaUBKTNV-1" source="JY7lylcE65taJHY3PQle-39" target="JY7lylcE65taJHY3PQle-20">
          <mxGeometry relative="1" as="geometry">
            <Array as="points">
              <mxPoint x="490" y="710" />
              <mxPoint x="490" y="459" />
            </Array>
          </mxGeometry>
        </mxCell>
        <mxCell id="JY7lylcE65taJHY3PQle-43" value="更新EPL" style="edgeLabel;html=1;align=center;verticalAlign=middle;resizable=0;points=[];sketch=1;" vertex="1" connectable="0" parent="JY7lylcE65taJHY3PQle-42">
          <mxGeometry x="0.2876" y="3" relative="1" as="geometry">
            <mxPoint x="3" y="59" as="offset" />
          </mxGeometry>
        </mxCell>
        <mxCell id="JY7lylcE65taJHY3PQle-39" value="创建XDR入口告警&lt;br&gt;捕获规则" style="rounded=1;whiteSpace=wrap;html=1;fontSize=12;glass=0;strokeWidth=1;shadow=0;sketch=1;" vertex="1" parent="WIyWlLk6GJQsqaUBKTNV-1">
          <mxGeometry x="310" y="690" width="120" height="40" as="geometry" />
        </mxCell>
        <mxCell id="JY7lylcE65taJHY3PQle-49" value="" style="edgeStyle=orthogonalEdgeStyle;rounded=0;orthogonalLoop=1;jettySize=auto;html=1;sketch=1;" edge="1" parent="WIyWlLk6GJQsqaUBKTNV-1" source="JY7lylcE65taJHY3PQle-44" target="JY7lylcE65taJHY3PQle-60">
          <mxGeometry relative="1" as="geometry">
            <mxPoint x="920" y="260" as="targetPoint" />
          </mxGeometry>
        </mxCell>
        <mxCell id="JY7lylcE65taJHY3PQle-65" value="Timer driven" style="edgeLabel;html=1;align=center;verticalAlign=middle;resizable=0;points=[];" vertex="1" connectable="0" parent="JY7lylcE65taJHY3PQle-49">
          <mxGeometry x="-0.765" y="1" relative="1" as="geometry">
            <mxPoint x="-1" y="18" as="offset" />
          </mxGeometry>
        </mxCell>
        <mxCell id="JY7lylcE65taJHY3PQle-64" value="" style="edgeStyle=orthogonalEdgeStyle;rounded=0;sketch=1;orthogonalLoop=1;jettySize=auto;html=1;" edge="1" parent="WIyWlLk6GJQsqaUBKTNV-1" source="JY7lylcE65taJHY3PQle-44" target="JY7lylcE65taJHY3PQle-58">
          <mxGeometry relative="1" as="geometry" />
        </mxCell>
        <mxCell id="JY7lylcE65taJHY3PQle-44" value="SearchTask queue" style="rounded=1;whiteSpace=wrap;html=1;fontSize=12;glass=0;strokeWidth=1;shadow=0;sketch=1;" vertex="1" parent="WIyWlLk6GJQsqaUBKTNV-1">
          <mxGeometry x="860" y="170" width="120" height="40" as="geometry" />
        </mxCell>
        <mxCell id="JY7lylcE65taJHY3PQle-51" value="" style="edgeStyle=orthogonalEdgeStyle;rounded=0;orthogonalLoop=1;jettySize=auto;html=1;sketch=1;" edge="1" parent="WIyWlLk6GJQsqaUBKTNV-1" source="JY7lylcE65taJHY3PQle-60" target="JY7lylcE65taJHY3PQle-50">
          <mxGeometry relative="1" as="geometry">
            <mxPoint x="920" y="335" as="sourcePoint" />
          </mxGeometry>
        </mxCell>
        <mxCell id="JY7lylcE65taJHY3PQle-54" value="" style="edgeStyle=orthogonalEdgeStyle;rounded=0;orthogonalLoop=1;jettySize=auto;html=1;sketch=1;" edge="1" parent="WIyWlLk6GJQsqaUBKTNV-1" source="JY7lylcE65taJHY3PQle-50" target="JY7lylcE65taJHY3PQle-53">
          <mxGeometry relative="1" as="geometry" />
        </mxCell>
        <mxCell id="JY7lylcE65taJHY3PQle-50" value="Apply search" style="rounded=1;whiteSpace=wrap;html=1;fontSize=12;glass=0;strokeWidth=1;shadow=0;sketch=1;" vertex="1" parent="WIyWlLk6GJQsqaUBKTNV-1">
          <mxGeometry x="860" y="330" width="120" height="40" as="geometry" />
        </mxCell>
        <mxCell id="JY7lylcE65taJHY3PQle-56" style="edgeStyle=orthogonalEdgeStyle;rounded=0;orthogonalLoop=1;jettySize=auto;html=1;entryX=1;entryY=0.5;entryDx=0;entryDy=0;exitX=1;exitY=0.5;exitDx=0;exitDy=0;sketch=1;" edge="1" parent="WIyWlLk6GJQsqaUBKTNV-1" source="JY7lylcE65taJHY3PQle-53" target="JY7lylcE65taJHY3PQle-44">
          <mxGeometry relative="1" as="geometry">
            <Array as="points">
              <mxPoint x="1070" y="414" />
              <mxPoint x="1070" y="190" />
            </Array>
          </mxGeometry>
        </mxCell>
        <mxCell id="JY7lylcE65taJHY3PQle-62" value="" style="edgeStyle=orthogonalEdgeStyle;rounded=0;orthogonalLoop=1;jettySize=auto;html=1;sketch=1;" edge="1" parent="WIyWlLk6GJQsqaUBKTNV-1" source="JY7lylcE65taJHY3PQle-53" target="JY7lylcE65taJHY3PQle-61">
          <mxGeometry relative="1" as="geometry" />
        </mxCell>
        <mxCell id="JY7lylcE65taJHY3PQle-53" value="Update &lt;br&gt;SearchTask Timer" style="rounded=1;whiteSpace=wrap;html=1;fontSize=12;glass=0;strokeWidth=1;shadow=0;sketch=1;" vertex="1" parent="WIyWlLk6GJQsqaUBKTNV-1">
          <mxGeometry x="860" y="394" width="120" height="40" as="geometry" />
        </mxCell>
        <mxCell id="JY7lylcE65taJHY3PQle-58" value="SearchTask(s)" style="shape=parallelogram;perimeter=parallelogramPerimeter;whiteSpace=wrap;html=1;fixedSize=1;sketch=1;" vertex="1" parent="WIyWlLk6GJQsqaUBKTNV-1">
          <mxGeometry x="860" y="85" width="120" height="45" as="geometry" />
        </mxCell>
        <mxCell id="JY7lylcE65taJHY3PQle-60" value="Schduled fetch task" style="rounded=1;whiteSpace=wrap;html=1;fontSize=12;glass=0;strokeWidth=1;shadow=0;sketch=1;" vertex="1" parent="WIyWlLk6GJQsqaUBKTNV-1">
          <mxGeometry x="860" y="270" width="120" height="40" as="geometry" />
        </mxCell>
        <mxCell id="JY7lylcE65taJHY3PQle-63" style="edgeStyle=orthogonalEdgeStyle;rounded=0;orthogonalLoop=1;jettySize=auto;html=1;entryX=0.75;entryY=0;entryDx=0;entryDy=0;exitX=0;exitY=0.5;exitDx=0;exitDy=0;sketch=1;" edge="1" parent="WIyWlLk6GJQsqaUBKTNV-1" source="JY7lylcE65taJHY3PQle-61" target="JY7lylcE65taJHY3PQle-13">
          <mxGeometry relative="1" as="geometry">
            <mxPoint x="870" y="440" as="sourcePoint" />
            <Array as="points">
              <mxPoint x="710" y="500" />
              <mxPoint x="710" y="340" />
              <mxPoint x="590" y="340" />
            </Array>
          </mxGeometry>
        </mxCell>
        <mxCell id="JY7lylcE65taJHY3PQle-61" value="搜索到的合并告警" style="rounded=1;whiteSpace=wrap;html=1;fontSize=12;glass=0;strokeWidth=1;shadow=0;sketch=1;" vertex="1" parent="WIyWlLk6GJQsqaUBKTNV-1">
          <mxGeometry x="860" y="480" width="120" height="40" as="geometry" />
        </mxCell>
        <mxCell id="JY7lylcE65taJHY3PQle-67" value="&lt;h1 style=&quot;font-size: 18px;&quot;&gt;&lt;font style=&quot;font-size: 18px;&quot;&gt;不同-1&lt;/font&gt;&lt;/h1&gt;&lt;p style=&quot;&quot;&gt;&amp;nbsp;此处仅当安全事件创建时会触发一次，对象搜索任务在后续中不再更新&lt;/p&gt;&lt;p style=&quot;&quot;&gt;而本脑则会在其他入口告警创建后，持续基于其他入口告警对其进行创建/更新&lt;/p&gt;" style="text;html=1;strokeColor=#d6b656;fillColor=#fff2cc;spacing=5;spacingTop=-20;whiteSpace=wrap;overflow=hidden;rounded=0;sketch=1;" vertex="1" parent="WIyWlLk6GJQsqaUBKTNV-1">
          <mxGeometry x="600" y="820" width="190" height="150" as="geometry" />
        </mxCell>
        <mxCell id="JY7lylcE65taJHY3PQle-69" value="&lt;h1 style=&quot;font-size: 18px;&quot;&gt;&lt;font style=&quot;font-size: 18px;&quot;&gt;不同-2&lt;/font&gt;&lt;/h1&gt;&lt;p style=&quot;&quot;&gt;仅有一级搜索&lt;/p&gt;&lt;p style=&quot;&quot;&gt;意味着 搜索任务不会级联创建下一级搜索，更简单？&lt;/p&gt;" style="text;html=1;strokeColor=#d6b656;fillColor=#fff2cc;spacing=5;spacingTop=-20;whiteSpace=wrap;overflow=hidden;rounded=0;sketch=1;" vertex="1" parent="WIyWlLk6GJQsqaUBKTNV-1">
          <mxGeometry x="1020" y="445" width="190" height="110" as="geometry" />
        </mxCell>
      </root>
    </mxGraphModel>
  </diagram>
</mxfile>
